<?xml version="1.0" standalone="no"?><!DOCTYPE svg PUBLIC "-//W3C//DTD SVG 1.1//EN" "http://www.w3.org/Graphics/SVG/1.1/DTD/svg11.dtd"><svg t="1771989939069" class="icon" viewBox="0 0 1024 1024" version="1.1" xmlns="http://www.w3.org/2000/svg" p-id="1743" data-darkreader-inline-fill="" xmlns:xlink="http://www.w3.org/1999/xlink" width="200" height="200"><path d="M929.40875 184.139375H648.0875a107.4778125 107.4778125 0 0 1-77.2171875-32.97375l-55.096875-56.5565625a69.0778125 69.0778125 0 0 0-49.4596875-20.8696875H94.626875a64.9040625 64.9040625 0 0 0-62.6090625 66.365625v743.7909375a64.9040625 64.9040625 0 0 0 62.6090625 66.365625h834.781875a64.9040625 64.9040625 0 0 0 62.6090625-66.365625V250.503125a64.9040625 64.9040625 0 0 0-62.6090625-66.365625zM282.453125 417.8778125a8.5565625 8.5565625 0 0 1 8.3484375-8.765625h267.5475a8.5565625 8.5565625 0 0 0 8.3475-8.7646875v-59.26875a8.3475 8.3475 0 0 1 13.1484375-7.305l158.4 115.6171875a9.1828125 9.1828125 0 0 1 0 14.4l-156.313125 120.834375a8.3475 8.3475 0 0 1-13.3565625-6.8859375V518.46875a8.5565625 8.5565625 0 0 0-8.3475-8.765625h-269.634375a8.5565625 8.5565625 0 0 1-8.3484375-8.765625z m459.13125 287.791875a8.5565625 8.5565625 0 0 1-8.3484375 8.765625H465.6875a8.5565625 8.5565625 0 0 0-8.3484375 8.7646875v59.26875a8.3475 8.3475 0 0 1-13.1475 7.305l-159.02625-116.034375a9.1828125 9.1828125 0 0 1 0-14.4l156.313125-120.834375a8.3475 8.3475 0 0 1 13.3565625 6.8859375v59.2696875a8.5565625 8.5565625 0 0 0 8.3475 8.765625h269.218125a8.5565625 8.5565625 0 0 1 8.3475 8.765625v83.4778125z m0 0" fill="#2AAE67" p-id="1744" data-darkreader-inline-fill="" style="--darkreader-inline-fill: var(--darkreader-background-2aae67, #25985a);"></path></svg>